<?xml version="1.0" encoding="utf-8"?>
<!-- Generator: Adobe Illustrator 19.0.0, SVG Export Plug-In . SVG Version: 6.00 Build 0)  -->
<svg version="1.1" id="Layer_1" xmlns="http://www.w3.org/2000/svg" xmlns:xlink="http://www.w3.org/1999/xlink" x="0px" y="0px"
	 viewBox="-212 315.3 187 162.7" style="enable-background:new -212 315.3 187 162.7;" xml:space="preserve">
<style type="text/css">
	.st0{opacity:0.8;fill:url(#SVGID_1_);enable-background:new    ;}
	.st1{opacity:0.9;fill:url(#SVGID_2_);enable-background:new    ;}
	.st2{fill:none;}
	.st3{enable-background:new    ;}
	.st4{fill:#652F8F;}
	.st5{opacity:0.8;fill:url(#SVGID_3_);enable-background:new    ;}
	.st6{fill:#E90E8B;}
</style>
<g>
	
		<linearGradient id="SVGID_1_" gradientUnits="userSpaceOnUse" x1="-97.1974" y1="402.8878" x2="-174.28" y2="326.9255" gradientTransform="matrix(1 0 0 -1 0 794.666)">
		<stop  offset="0" style="stop-color:#282560;stop-opacity:0.9"/>
		<stop  offset="1.250000e-02" style="stop-color:#2E2562;stop-opacity:0.9021"/>
		<stop  offset="0.1388" style="stop-color:#66246D;stop-opacity:0.9236"/>
		<stop  offset="0.2574" style="stop-color:#902176;stop-opacity:0.9437"/>
		<stop  offset="0.365" style="stop-color:#B31C7D;stop-opacity:0.962"/>
		<stop  offset="0.4595" style="stop-color:#CE1583;stop-opacity:0.9781"/>
		<stop  offset="0.5372" style="stop-color:#E01188;stop-opacity:0.9913"/>
		<stop  offset="0.5885" style="stop-color:#E90E8B"/>
		<stop  offset="0.702" style="stop-color:#E9108A"/>
		<stop  offset="0.7429" style="stop-color:#E91688"/>
		<stop  offset="0.772" style="stop-color:#EA1D84"/>
		<stop  offset="0.7956" style="stop-color:#EA267F"/>
		<stop  offset="0.8158" style="stop-color:#EB2F78"/>
		<stop  offset="0.8337" style="stop-color:#EC396F"/>
		<stop  offset="0.8498" style="stop-color:#ED4263"/>
		<stop  offset="0.8647" style="stop-color:#EE4B55"/>
		<stop  offset="0.8779" style="stop-color:#F05341"/>
		<stop  offset="0.8889" style="stop-color:#F15B2A"/>
	</linearGradient>
	<path class="st0" d="M-108.4,386.7c6.1-1.6,12.5,2.1,14,8.2c1.5,6.2-1.3,11-8.2,14c-7,3-9.5-1.5-21.1,10.2
		c-8.5,8.6-23.3,35.1-24.9,39.9c-1.9,5.7-6,9-10.7,10.3c-7.3,1.9-14.8-2.5-16.7-9.8c-1.9-7.3,3.3-15.1,10.6-17.1
		c9.3-2.6,29.5-17.3,38.9-26.7c9.9-9.9,8.2-16.7,10.1-21.4C-115.1,390.9-112.6,387.9-108.4,386.7z"/>
	
		<linearGradient id="SVGID_2_" gradientUnits="userSpaceOnUse" x1="-176.028" y1="398.7874" x2="-30.6299" y2="398.7874" gradientTransform="matrix(1 0 0 -1 0 794.666)">
		<stop  offset="0" style="stop-color:#282560"/>
		<stop  offset="5.530000e-02" style="stop-color:#2E2562"/>
		<stop  offset="0.135" style="stop-color:#3E2565"/>
		<stop  offset="0.2295" style="stop-color:#552569"/>
		<stop  offset="0.3354" style="stop-color:#742370"/>
		<stop  offset="0.4507" style="stop-color:#9B2078"/>
		<stop  offset="0.5721" style="stop-color:#CE1583"/>
		<stop  offset="0.6188" style="stop-color:#E90E8B"/>
		<stop  offset="0.6661" style="stop-color:#E91189"/>
		<stop  offset="0.704" style="stop-color:#E91986"/>
		<stop  offset="0.7386" style="stop-color:#EA2281"/>
		<stop  offset="0.7712" style="stop-color:#EB2D7A"/>
		<stop  offset="0.8025" style="stop-color:#EC3870"/>
		<stop  offset="0.8328" style="stop-color:#ED4362"/>
		<stop  offset="0.8622" style="stop-color:#EF4D50"/>
		<stop  offset="0.8903" style="stop-color:#F05736"/>
		<stop  offset="0.9007" style="stop-color:#F15B2A"/>
	</linearGradient>
	<path class="st1" d="M-30.7,401.8c1.2-31.3-19.3-51.9-41.7-61.2c-0.1,0-0.2-0.1-0.3-0.2c-4.4-1.9-8.5-3.3-12-4.1
		c-28.2-6.9-62.4-13.3-70.9-14.2c-7.4-0.8-15.1,5.1-15.1,13.3c0,6.4,4.5,11.9,10.9,12.2c1.8,0.1,4.8-0.4,8.1-2
		c16.3-9.5,43.8-9.4,60.3-1.9c26.8,12.2,38.3,33.9,38.9,54.8l-0.2,5.4c-2.1,20.7-15.3,41.5-43,51.6c-17,6.2-44.5,4.2-60-6.6
		c-2.7-2-5.6-3.7-8.2-3.9c-7.4-0.6-12,4.2-12.2,11.7c-0.2,6.2,4.8,11.8,10.4,12.8c0,0,0.7,0.1,0.8,0.2c0.3,0.1,0.7,0.1,1.3,0.1
		c8.6-0.3,45.2-1.9,73.8-6.6c3.6-0.6,7.8-1.6,12.3-3.2c0.1,0,0.2-0.1,0.4-0.1C-30.5,446.1-30.7,401.8-30.7,401.8z"/>
	<g>
		<rect x="-208.6" y="389.3" class="st2" width="69" height="19.7"/>
		<g class="st3">
			<path class="st4" d="M-205.6,390.4h4.9c5.6,0,8.6,3.1,8.6,7.8c0,4.8-3.4,8-8.9,8h-4.7V390.4z M-200.9,403.8
				c4.2,0,5.8-2.5,5.8-5.5c0-3.3-1.9-5.4-5.8-5.4h-1.8v10.9H-200.9z"/>
			<path class="st4" d="M-187.6,398.4c0-4.8,3.3-8.1,8-8.1s8,3.3,8,8.1c0,4.8-3.4,8.1-8,8.1C-184.3,406.5-187.6,403.3-187.6,398.4z
				 M-174.8,398.4c0-3.5-1.9-5.7-4.9-5.7c-2.9,0-4.9,2.1-4.9,5.7c0,3.6,2,5.7,4.9,5.7C-176.7,404.1-174.8,402-174.8,398.4z"/>
			<path class="st4" d="M-163.5,392.9h-4.6v-2.4h12.5l-0.8,2.4h-4.2v13.4h-2.9V392.9z"/>
			<path class="st4" d="M-151.3,402.9c0.9,0.6,2.1,1.2,3.6,1.2c1.3,0,2.6-0.5,2.6-1.9c0-3.1-6.8-2.7-6.8-7.5c0-2.3,1.8-4.4,5.1-4.4
				c1.6,0,3,0.4,3.9,0.8v2.6c-1.2-0.6-2.5-1-3.8-1c-1.1,0-2.2,0.4-2.2,1.7c0,2.9,6.8,2.5,6.8,7.5c0,2.8-2.4,4.5-5.6,4.5
				c-1.8,0-3.6-0.5-4.8-1.4L-151.3,402.9z"/>
		</g>
	</g>
	
		<linearGradient id="SVGID_3_" gradientUnits="userSpaceOnUse" x1="-94.7389" y1="387.5981" x2="-171.3339" y2="475.4582" gradientTransform="matrix(1 0 0 -1 0 794.666)">
		<stop  offset="0" style="stop-color:#282560"/>
		<stop  offset="2.310000e-02" style="stop-color:#342563"/>
		<stop  offset="0.1636" style="stop-color:#72236F"/>
		<stop  offset="0.2879" style="stop-color:#A01F79"/>
		<stop  offset="0.3914" style="stop-color:#C41881"/>
		<stop  offset="0.4702" style="stop-color:#DD1287"/>
		<stop  offset="0.515" style="stop-color:#E90E8B"/>
		<stop  offset="0.6168" style="stop-color:#E9118A"/>
		<stop  offset="0.6837" style="stop-color:#E91787"/>
		<stop  offset="0.7407" style="stop-color:#EA2082"/>
		<stop  offset="0.792" style="stop-color:#EB2B7B"/>
		<stop  offset="0.8396" style="stop-color:#EC3573"/>
		<stop  offset="0.8843" style="stop-color:#ED3F67"/>
		<stop  offset="0.927" style="stop-color:#EE4958"/>
		<stop  offset="0.9668" style="stop-color:#F05343"/>
		<stop  offset="1" style="stop-color:#F15B2A"/>
	</linearGradient>
	<path class="st5" d="M-109.4,408.9c6,2.1,12.6-1,14.7-7c2-6-0.4-11-7-14.7c-6.7-3.6-9.6,0.7-20.2-11.9c-7.8-9.3-20.2-37-21.5-41.9
		c-1.5-5.8-4.5-9-9.1-10.6c-7.1-2.5-14.9,1.2-17.4,8.4c-2.5,7.1,1.3,14.8,8.4,17.4c9.1,3.4,28,19.7,36.5,29.9
		c9,10.7,6.7,17.3,8.3,22.1C-115.8,404.2-113.6,407.4-109.4,408.9z"/>
	<g class="st3">
		<path class="st6" d="M-199.2,413.1c0.5,0.4,0.8,0.9,0.8,1.6c0,0.6-0.1,1.1-0.4,1.5c-0.2,0.5-0.6,0.8-1.2,1.1
			c-0.5,0.3-1.2,0.4-2,0.4h-1.1l-0.4,3h-1.1l1.2-8.3h2.1C-200.4,412.6-199.7,412.8-199.2,413.1z M-200.2,416.3
			c0.3-0.4,0.5-0.9,0.5-1.5c0-0.5-0.1-0.8-0.4-1c-0.3-0.2-0.7-0.3-1.3-0.3h-1l-0.5,3.4h1C-201.1,416.9-200.5,416.7-200.2,416.3z"/>
		<path class="st6" d="M-192.1,416.2c-0.3,0.5-0.9,0.8-1.6,1l1.7,3.7h-1.2l-1.5-3.5h-1.3l-0.5,3.5h-1.1l1.2-8.3h2.1
			c1.9,0,2.8,0.7,2.8,2.1C-191.6,415.2-191.8,415.7-192.1,416.2z M-196,416.5h1.2c0.7,0,1.2-0.2,1.5-0.5c0.3-0.4,0.5-0.8,0.5-1.3
			c0-0.4-0.1-0.7-0.4-0.9s-0.7-0.3-1.3-0.3h-1.1L-196,416.5z"/>
		<path class="st6" d="M-184.4,413.3c0.5,0.6,0.8,1.4,0.8,2.5c0,0.8-0.1,1.6-0.4,2.4c-0.3,0.8-0.7,1.5-1.3,2
			c-0.6,0.5-1.4,0.8-2.3,0.8c-0.9,0-1.6-0.3-2.2-0.9c-0.5-0.6-0.8-1.4-0.8-2.5c0-0.8,0.1-1.6,0.4-2.4c0.3-0.8,0.7-1.5,1.3-2
			c0.6-0.5,1.4-0.8,2.3-0.8C-185.7,412.4-184.9,412.7-184.4,413.3z M-188.3,414.1c-0.4,0.5-0.7,1-0.9,1.7c-0.2,0.7-0.3,1.3-0.3,2
			c0,1.6,0.6,2.4,1.8,2.4c0.7,0,1.3-0.2,1.7-0.7c0.4-0.5,0.7-1,0.9-1.7s0.3-1.3,0.3-2c0-1.6-0.6-2.3-1.8-2.3
			C-187.3,413.4-187.9,413.6-188.3,414.1z"/>
		<path class="st6" d="M-176.7,420.9h-1.5l-2.4-7.3c0,1-0.1,2.1-0.3,3.5l-0.5,3.8h-1.1l1.2-8.3h1.5l2.4,7.3c0-0.5,0-1,0-1.4
			c0-0.4,0.1-0.9,0.1-1.4l0.6-4.5h1.1L-176.7,420.9z"/>
		<path class="st6" d="M-168.3,412.6l-0.3,1h-2.3l-1,7.3h-1.1l1-7.3h-2.3l0.1-1H-168.3z"/>
		<path class="st6" d="M-162.4,413.3c0.5,0.6,0.8,1.4,0.8,2.5c0,0.8-0.1,1.6-0.4,2.4c-0.3,0.8-0.7,1.5-1.3,2
			c-0.6,0.5-1.4,0.8-2.3,0.8c-0.9,0-1.6-0.3-2.2-0.9c-0.5-0.6-0.8-1.4-0.8-2.5c0-0.8,0.1-1.6,0.4-2.4c0.3-0.8,0.7-1.5,1.3-2
			c0.6-0.5,1.4-0.8,2.3-0.8C-163.6,412.4-162.9,412.7-162.4,413.3z M-166.2,414.1c-0.4,0.5-0.7,1-0.9,1.7c-0.2,0.7-0.3,1.3-0.3,2
			c0,1.6,0.6,2.4,1.8,2.4c0.7,0,1.3-0.2,1.7-0.7c0.4-0.5,0.7-1,0.9-1.7s0.3-1.3,0.3-2c0-1.6-0.6-2.3-1.8-2.3
			C-165.3,413.4-165.8,413.6-166.2,414.1z"/>
	</g>
</g>
</svg>
