<?xml version="1.0" encoding="utf-8"?>
<!-- Generator: Adobe Illustrator 19.0.0, SVG Export Plug-In . SVG Version: 6.00 Build 0)  -->
<svg version="1.1" id="Layer_1" xmlns="http://www.w3.org/2000/svg" xmlns:xlink="http://www.w3.org/1999/xlink" x="0px" y="0px"
	 viewBox="-228 307.6 154.7 178.4" style="enable-background:new -228 307.6 154.7 178.4;" xml:space="preserve">
<style type="text/css">
	.st0{opacity:0.9;fill:url(#SVGID_1_);enable-background:new    ;}
	.st1{opacity:0.9;fill:url(#SVGID_2_);enable-background:new    ;}
	.st2{fill:none;}
	.st3{enable-background:new    ;}
	.st4{fill:#1D76BB;}
	.st5{opacity:0.9;enable-background:new    ;}
	.st6{fill:#282560;}
</style>
<g>
	
		<linearGradient id="SVGID_1_" gradientUnits="userSpaceOnUse" x1="514.2734" y1="212.8514" x2="582.182" y2="78.2474" gradientTransform="matrix(-0.842 0.5395 0.5395 0.842 172.9693 -31.3148)">
		<stop  offset="0" style="stop-color:#A6A8AC"/>
		<stop  offset="3.000000e-03" style="stop-color:#A5A8AC"/>
		<stop  offset="0.1547" style="stop-color:#74A9C7"/>
		<stop  offset="0.2717" style="stop-color:#47A8D8"/>
		<stop  offset="0.3391" style="stop-color:#28A8E0"/>
		<stop  offset="0.377" style="stop-color:#2998D2"/>
		<stop  offset="0.4705" style="stop-color:#2B76B6"/>
		<stop  offset="0.5563" style="stop-color:#2A5EA4"/>
		<stop  offset="0.6316" style="stop-color:#2A4B98"/>
		<stop  offset="0.6937" style="stop-color:#2A4091"/>
		<stop  offset="0.7348" style="stop-color:#2A3B8F"/>
		<stop  offset="0.7365" style="stop-color:#2A3A8D"/>
		<stop  offset="0.7596" style="stop-color:#2B327B"/>
		<stop  offset="0.7868" style="stop-color:#2A2C6F"/>
		<stop  offset="0.8207" style="stop-color:#292866"/>
		<stop  offset="0.8681" style="stop-color:#282562"/>
		<stop  offset="1" style="stop-color:#282560"/>
	</linearGradient>
	<path class="st0" d="M-208.9,466.4c4.3,6.7,15.1,8.1,21.8,3.7c6.7-4.4,8.4-11.8,5.6-19.6c-3.2-9-11.3-33.3-11-53.9
		c0.3-24.3,7.6-44.7,10.2-54c2-7.3,2.5-12.4-0.8-17.5c-5.1-8-15.7-10.3-23.7-5.2c-8,5.1-9,15-5.2,23.7c4.5,10.3,12.7,37,12.4,53.7
		c-0.3,17.7-9.2,47.5-11.4,53.5C-213,456.3-211.8,461.7-208.9,466.4z"/>
	
		<linearGradient id="SVGID_2_" gradientUnits="userSpaceOnUse" x1="807.0284" y1="74.1949" x2="861.2867" y2="-33.3528" gradientTransform="matrix(0.4972 0.8676 0.8676 -0.4972 -593.5137 -245.5894)">
		<stop  offset="0" style="stop-color:#A6A8AC"/>
		<stop  offset="3.000000e-03" style="stop-color:#A5A8AC"/>
		<stop  offset="0.1547" style="stop-color:#74A9C7"/>
		<stop  offset="0.2717" style="stop-color:#47A8D8"/>
		<stop  offset="0.3391" style="stop-color:#28A8E0"/>
		<stop  offset="0.377" style="stop-color:#2998D2"/>
		<stop  offset="0.4705" style="stop-color:#2B76B6"/>
		<stop  offset="0.5563" style="stop-color:#2A5EA4"/>
		<stop  offset="0.6316" style="stop-color:#2A4B98"/>
		<stop  offset="0.6937" style="stop-color:#2A4091"/>
		<stop  offset="0.7348" style="stop-color:#2A3B8F"/>
		<stop  offset="0.7365" style="stop-color:#2A3A8D"/>
		<stop  offset="0.7596" style="stop-color:#2B327B"/>
		<stop  offset="0.7868" style="stop-color:#2A2C6F"/>
		<stop  offset="0.8207" style="stop-color:#292866"/>
		<stop  offset="0.8681" style="stop-color:#282562"/>
		<stop  offset="1" style="stop-color:#282560"/>
	</linearGradient>
	<path class="st1" d="M-102.8,470.6c6.9-3.9,9.4-12.8,5.3-19.7c-4-6.9-10.8-8.7-19.7-5.3c-8.9,3.4-12.8,9.4-33.4,9.1
		c-15.2-0.2-29.6-9.9-35.3-12.8c-6.7-3.4-12.2-3.1-17.6-0.1c-8.2,4.7-11.1,15.2-6.4,23.4c4.7,8.2,15.1,10.9,23.4,6.4
		c10.7-5.9,19.6-11.6,36.2-11.4c17.6,0.2,27.5,8.1,33.4,10.6C-112.5,472.7-107.6,473.3-102.8,470.6z"/>
	<rect x="-138.9" y="391.5" class="st2" width="57.6" height="20.2"/>
	<g class="st3">
		<path class="st4" d="M-136.9,392.7h3v13.9h5.8v2.5h-8.8V392.7z"/>
		<path class="st4" d="M-123.7,392.7h3v16.4h-3V392.7z"/>
		<path class="st4" d="M-102.7,409.1l-7.1-9.4c-0.7-0.9-1.3-1.7-1.8-2.5h0c0,0.6,0,1.6,0,2.5v9.3h-3v-16.4h3l6.9,9
			c0.7,1,1.3,1.8,1.8,2.5h0c0-0.9,0-1.9,0-2.8v-8.8h3v16.4H-102.7z"/>
		<path class="st4" d="M-94,392.7h9.1l-0.8,2.5H-91v4.3h5.3v2.5H-91v4.5h6.1v2.5H-94V392.7z"/>
	</g>
</g>
<g class="st5">
	<path class="st6" d="M-106.4,419.4c0.3,0.3,0.5,0.7,0.5,1.2c0,0.8-0.3,1.4-0.8,1.9c-0.6,0.5-1.5,0.7-2.7,0.7h-2.3l1.2-8.3h2.3
		c0.8,0,1.4,0.2,1.9,0.5c0.5,0.3,0.7,0.8,0.7,1.4c0,0.6-0.2,1-0.5,1.4c-0.4,0.4-0.8,0.6-1.3,0.7C-107.1,419-106.7,419.2-106.4,419.4
		z M-107.7,421.9c0.3-0.3,0.5-0.7,0.5-1.3c0-0.8-0.5-1.2-1.6-1.2h-1.4l-0.4,3h1.1C-108.6,422.4-108,422.2-107.7,421.9z
		 M-109.7,415.9l-0.4,2.6h1.2c0.5,0,1-0.1,1.3-0.4c0.4-0.3,0.5-0.7,0.5-1.2c0-0.4-0.1-0.6-0.4-0.8c-0.3-0.1-0.6-0.2-1-0.2H-109.7z"
		/>
	<path class="st6" d="M-99,415l-0.3,0.9h-3.2l-0.4,2.7h2.8l-0.1,0.9h-2.8l-0.4,2.8h3.4l-0.1,0.9h-4.5l1.2-8.3H-99z"/>
	<path class="st6" d="M-92.3,415l-0.3,1h-2.3l-1,7.3h-1.1l1-7.3h-2.3l0.1-1H-92.3z"/>
	<path class="st6" d="M-88.3,423.3l-0.3-2.1h-3.1l-0.9,2.1h-1.2l3.8-8.3h1.4l1.5,8.3H-88.3z M-91.4,420.3h2.6l-0.7-4.3L-91.4,420.3z
		"/>
</g>
</svg>
