<?xml version="1.0" encoding="utf-8"?>
<!-- Generator: Adobe Illustrator 19.2.0, SVG Export Plug-In . SVG Version: 6.00 Build 0)  -->
<svg version="1.1" id="Layer_1" xmlns="http://www.w3.org/2000/svg" xmlns:xlink="http://www.w3.org/1999/xlink" x="0px" y="0px"
	 viewBox="0 0 130.1 113.1" style="enable-background:new 0 0 130.1 113.1;" xml:space="preserve">
<style type="text/css">
	.st0{opacity:0.9;fill:url(#SVGID_1_);}
	.st1{opacity:0.9;fill:url(#SVGID_2_);}
	.st2{fill:#1C75BC;}
</style>
<g>
	
		<linearGradient id="SVGID_1_" gradientUnits="userSpaceOnUse" x1="962.8179" y1="932.0801" x2="1011.836" y2="1029.241" gradientTransform="matrix(-0.842 0.5395 -0.5395 -0.842 1381.3859 343.1186)">
		<stop  offset="0" style="stop-color:#A7A9AC"/>
		<stop  offset="4.503891e-02" style="stop-color:#9EAAB5"/>
		<stop  offset="0.1476" style="stop-color:#82ACC9"/>
		<stop  offset="0.2343" style="stop-color:#60AAD5"/>
		<stop  offset="0.3008" style="stop-color:#3DA9DD"/>
		<stop  offset="0.3391" style="stop-color:#27AAE1"/>
		<stop  offset="0.3866" style="stop-color:#2995D0"/>
		<stop  offset="0.4775" style="stop-color:#2A73B6"/>
		<stop  offset="0.561" style="stop-color:#295BA5"/>
		<stop  offset="0.6344" style="stop-color:#294999"/>
		<stop  offset="0.6948" style="stop-color:#2A3D92"/>
		<stop  offset="0.7348" style="stop-color:#2B3990"/>
		<stop  offset="0.7389" style="stop-color:#2A368B"/>
		<stop  offset="0.7618" style="stop-color:#2A2F7B"/>
		<stop  offset="0.7889" style="stop-color:#29296F"/>
		<stop  offset="0.8224" style="stop-color:#282567"/>
		<stop  offset="0.8694" style="stop-color:#272363"/>
		<stop  offset="1" style="stop-color:#262262"/>
	</linearGradient>
	<path class="st0" d="M23,107.3c3.1,4.9,9.6,6.3,14.4,3.1c4.8-3.2,5.9-8.1,3.2-14.4c-2.8-6.3-7.2-23.8-7-38.7
		c0.2-17.5,5.5-32.3,7.4-39c1.4-5.2,1.8-8.9-0.6-12.7C36.6-0.1,29-1.7,23.2,2c-5.8,3.7-6.5,10.8-3.7,17.1c3.2,7.5,9.2,26.7,9,38.7
		c-0.2,12.7-4.5,35.1-6.1,39.4C21.1,100.4,20.9,103.9,23,107.3z"/>
	
		<linearGradient id="SVGID_2_" gradientUnits="userSpaceOnUse" x1="857.6818" y1="727.7294" x2="896.8499" y2="805.3661" gradientTransform="matrix(0.4972 0.8676 -0.8676 0.4972 285.0634 -1033.3479)">
		<stop  offset="0" style="stop-color:#A7A9AC"/>
		<stop  offset="4.503891e-02" style="stop-color:#9EAAB5"/>
		<stop  offset="0.1476" style="stop-color:#82ACC9"/>
		<stop  offset="0.2343" style="stop-color:#60AAD5"/>
		<stop  offset="0.3008" style="stop-color:#3DA9DD"/>
		<stop  offset="0.3391" style="stop-color:#27AAE1"/>
		<stop  offset="0.3866" style="stop-color:#2995D0"/>
		<stop  offset="0.4775" style="stop-color:#2A73B6"/>
		<stop  offset="0.561" style="stop-color:#295BA5"/>
		<stop  offset="0.6344" style="stop-color:#294999"/>
		<stop  offset="0.6948" style="stop-color:#2A3D92"/>
		<stop  offset="0.7348" style="stop-color:#2B3990"/>
		<stop  offset="0.7389" style="stop-color:#2A368B"/>
		<stop  offset="0.7618" style="stop-color:#2A2F7B"/>
		<stop  offset="0.7889" style="stop-color:#29296F"/>
		<stop  offset="0.8224" style="stop-color:#282567"/>
		<stop  offset="0.8694" style="stop-color:#272363"/>
		<stop  offset="1" style="stop-color:#262262"/>
	</linearGradient>
	<path class="st1" d="M98.2,110.8c5-2.8,6.8-9.3,3.9-14.2c-2.9-5-7.8-6.3-14.2-3.9c-6.4,2.4-9.3,6.8-24.1,6.5
		c-11-0.2-21.4-7.1-25.5-9.2c-4.9-2.4-8.8-2.3-12.7-0.1c-5.9,3.4-8,11-4.6,16.9c3.4,5.9,10.9,7.9,16.9,4.6
		c7.7-4.2,14.1-8.4,26.1-8.2c12.7,0.2,19.9,5.9,24.1,7.6C91.2,112.3,94.8,112.7,98.2,110.8z"/>
	<g>
		<path class="st2" d="M73.6,64.3h2.2v10H80v1.8h-6.4V64.3z"/>
		<path class="st2" d="M83.5,64.3h2.2v11.9h-2.2V64.3z"/>
		<path class="st2" d="M99,76.2l-5.1-6.8c-0.5-0.7-0.9-1.3-1.3-1.8h0c0,0.5,0,1.2,0,1.8v6.7h-2.2V64.3h2.1l5,6.5
			c0.5,0.7,1,1.3,1.3,1.8h0c0-0.6,0-1.4,0-2v-6.3h2.2v11.9H99z"/>
		<path class="st2" d="M105.6,64.3h6.6l-0.6,1.8h-3.8v3.1h3.8v1.8h-3.8v3.3h4.4v1.8h-6.6V64.3z"/>
	</g>
</g>
</svg>
